# xmcd
#
# Track frame offsets:
#	150
#	12488
#	32003
#	47027
#	61045
#	77618
#	94157
#	115430
#	135745
#	154115
#	171290
#	187893
#	202465
#	217759
#	235497
#	248389
#	264996
#	280872
#	298203
#
# Disc length: 4251 seconds
#
# Revision: 0
# Processed by: cddbd v1.5.2PL0 Copyright (c) Steve Scherf et al.
# Submitted via: EasyCDDAExtractor 12.0.1.1
#
DISCID=0f109913
DTITLE=Snowgoons - Kraftwerk
DYEAR=2010
DGENRE=Hip-Hop US
TTITLE0=Snowgoons Dynasty feat. Freestyle (of Arsonists)
TTITLE1=The Uncrushables feat. Ill Bill (of Non-Phixion and La Coka Nostra), Sic
TTITLE1=knature, Sabac (aka Sabac Red of Non-Phixion)
TTITLE2=Put Em Up feat. N.B.S., Slaine (of Special Teamz and La Coka Nostra)
TTITLE3=Can't Go On Like That feat. Torae, Skyzoo
TTITLE4=Dangerous Ways feat. The Closers (Red Eye and Shabaam Sahdeeq), Bekay
TTITLE5=Who's Side feat. Side Effect
TTITLE6=We Nah Play feat. Banish, Crooked I (of Slaughterhouse), Beenie Man
TTITLE7=Warlords feat. U.G. (of Cella Dwellas), IDE and Alucard (of Creative Jui
TTITLE7=ces), Jise and Freestyle (of Arsonists)
TTITLE8=Road Warriors feat. Sadat X (of Brand Nubian), Fel Sweetenberg (of Nut
TTITLE8=house), Punchline
TTITLE9=Three Bullets feat. Esoteric, Mykill Miers, Qualm
TTITLE10=The Real And The Raw feat. M-Dot, Jaysaun (of Special Teamz)
TTITLE11=No Favors feat. Wise P, Sauce Money
TTITLE12=The Madness Begins feat. Outerspace, Banish
TTITLE13=Statue feat. Virtuoso
TTITLE14=The Beast feat. Lateb
TTITLE15=Big Bang Bomb feat. Lady Repo
TTITLE16=Rotten Apple feat. Ice Water, A.G. (of D.I.T.C.), Nutso, Tre Seven
TTITLE17=Global Domination feat. Lord Lhus, Sean Strange, Sicknature, Psych Wa
TTITLE17=rd
TTITLE18=Cold Dayz feat. F.T., Lord Willin, Reef The Lost Cauze
EXTD=
EXTT0=
EXTT1=
EXTT2=
EXTT3=
EXTT4=
EXTT5=
EXTT6=
EXTT7=
EXTT8=
EXTT9=
EXTT10=
EXTT11=
EXTT12=
EXTT13=
EXTT14=
EXTT15=
EXTT16=
EXTT17=
EXTT18=
PLAYORDER=
